<?xml version="1.0" encoding="utf-8"?>
<!-- Generator: Adobe Illustrator 21.0.0, SVG Export Plug-In . SVG Version: 6.00 Build 0)  -->
<svg version="1.1" id="Layer_1" xmlns="http://www.w3.org/2000/svg" xmlns:xlink="http://www.w3.org/1999/xlink" x="0px" y="0px"
	 viewBox="0 0 1200 1000" style="enable-background:new 0 0 1200 1000;" xml:space="preserve">
<style type="text/css">
	.st0{fill:#1D567C;}
	.st1{fill:#49B755;}
</style>
<g>
	<polygon class="st0" points="748.3,518.9 775.7,518.9 762,487.5 	"/>
	<path class="st0" d="M856.9,496.8c0-5.9-3.9-11.8-12.7-11.8H823v23.6h21.2C853.1,508.6,856.9,502.7,856.9,496.8z"/>
	<g>
		<path class="st1" d="M259.8,547.5c13,0,22.2-5,29.5-13.3v-31.1h-31.7v12.5h18.9v13.1c-5.8,4.6-10.9,5.9-16.7,5.9
			c-18.4,0-25.4-12.6-25.4-24.7c0-15.2,9.6-27.2,25.4-27.2c6.4,0,13.8,2.6,18.8,7.4l8.7-8.9c-7.6-7.5-17.5-11.3-27.4-11.3
			c-26.1,0-39.1,19.2-39.1,40C220.8,529.3,232,547.5,259.8,547.5z"/>
		<path class="st1" d="M314.5,531.9h38.6l6.2,13.9h15.2l-33.1-73.9h-15.2l-33.1,73.9h15.1L314.5,531.9z M333.8,487.5l13.7,31.5
			h-27.4L333.8,487.5z"/>
		<path class="st1" d="M393.6,524.1h20.9c36.2,0,36.1-52.3,0-52.3c-11.6,0-23.2,0.1-34.8,0.1v73.9h13.9V524.1z M393.6,485.1h20.9
			c17.7,0,17.8,26.2,0,26.2h-20.9V485.1z"/>
		<rect x="451.2" y="471.9" class="st1" width="13.8" height="73.9"/>
		<path class="st1" d="M500.6,545.8h13.9v-61.2h23.4v-12.7c-21.4,0-39.5,0-60.8,0v12.7h23.4V545.8z"/>
		<rect x="932.2" y="429.4" class="st1" width="22.7" height="22.7"/>
		<rect x="959.5" y="439.7" class="st0" width="21.5" height="21.5"/>
		<rect x="983.3" y="462" class="st0" width="14.1" height="14.1"/>
		<rect x="991.3" y="439.4" class="st1" width="12.3" height="12.3"/>
		<path class="st0" d="M948,460.6h-24.3v-14.1H554H196.4v124.1H554h410.3v-70.9H948V460.6z M554,563.5H203.5V453.6H554V563.5z
			 M595.7,547.7c-15.1,0-26.7-4.6-32.2-18.2l11.6-6c3.3,8.1,11.8,11.7,20.8,11.7c8.8,0,17-3.1,17-11.1c0-7-7.3-9.8-17.1-10.9
			c-15.1-1.8-29-5.8-29-22.4c0-15.2,15-21.4,28.6-21.5c11.5,0,23.4,3.3,29,14.7l-11.1,5.7c-2.5-4.2-9.5-8.2-17.5-8.2
			c-10.3,0-15.3,4.3-15.3,9.8c0,6.4,7.6,8.2,16.5,9.3c15.4,1.9,29.8,5.9,29.8,23.5C626.7,540.7,612.1,547.7,595.7,547.7z
			 M715.8,545.9h-13.9v-53.6l-24.1,32.1H675l-23.5-32.2v53.7h-13.9v-73.9h16l23.1,31.8l23.1-31.8h15.9V545.9z M787.6,545.8
			l-6.2-13.9h-38.6l-6.3,13.9h-15.1l33.1-73.9h15.2l33.1,73.9H787.6z M874.5,545.8H858l-21.5-24.7H823v24.7h-13.9v-74
			c11.7,0,23.4,0.1,35.2,0.1c17.4,0.1,26.6,11.7,26.6,24.5c0,10.1-4.6,20.4-18.7,23.2l22.4,25.2V545.8z M940,484.6h-23.4v61.2h-13.9
			v-61.2h-23.4v-12.7c21.3,0,39.4,0,60.8,0V484.6z"/>
		<rect x="956.5" y="468.5" class="st1" width="22.7" height="22.7"/>
	</g>
</g>
</svg>
